<svg xmlns="http://www.w3.org/2000/svg" width="870" height="240" viewBox="90 255 870 240" version="1.1">
	<path d="M 398.285 275.900 C 390.466 279.530, 384.058 282.725, 384.045 283 C 384.031 283.275, 385.876 284.280, 388.144 285.233 C 392.173 286.926, 392.230 287.017, 390.642 289.233 C 386.625 294.836, 386.681 294.962, 392.166 292.658 C 394.992 291.471, 398.633 289.262, 400.258 287.750 C 401.882 286.238, 403.389 285, 403.606 285 C 404.565 285, 403.865 289.361, 402.474 292.050 C 401.189 294.535, 401.171 295, 402.359 295 C 403.135 295, 404.577 296.231, 405.563 297.736 L 407.355 300.472 410.125 285.016 C 411.648 276.516, 412.805 269.502, 412.697 269.430 C 412.589 269.358, 406.103 272.270, 398.285 275.900 M 132 309.374 L 132 322.879 173.250 323.242 C 217.992 323.636, 219.254 323.775, 231.828 329.678 C 239.295 333.184, 250.782 344.627, 254.235 352 C 259.435 363.104, 260.379 379.834, 256.385 390.128 C 253.601 397.305, 246.461 407.216, 240.804 411.758 C 229.596 420.757, 205.525 430.697, 185.500 434.595 C 165.851 438.420, 142.620 436.205, 129.675 429.272 C 122.414 425.383, 114.385 417.120, 111.476 410.542 C 98.393 380.958, 119.709 344.909, 156.175 334.947 C 163.383 332.977, 163.415 332.955, 158.151 333.520 C 132.960 336.228, 108.158 356.024, 99.918 380 C 96.596 389.665, 96.162 402.882, 98.873 411.807 C 104.223 429.422, 117.765 441.088, 140 447.237 C 146.322 448.986, 150.405 449.315, 166 449.335 C 188.867 449.363, 198.279 447.875, 222 440.483 C 241.984 434.255, 272.552 419.843, 275.976 415.034 C 278.936 410.877, 283.946 397.758, 285.671 389.644 C 287.837 379.457, 286.991 359.805, 284.009 351.033 C 274.996 324.527, 257.541 308.023, 229.297 299.302 L 220.500 296.586 176.250 296.228 L 132 295.869 132 309.374 M 384 306.249 C 379.875 310.123, 373.580 315.252, 370.011 317.647 L 363.521 322 322.427 322 C 299.826 322, 281.082 322.252, 280.774 322.559 C 280.467 322.867, 281.792 325.454, 283.720 328.309 C 287.637 334.109, 291.442 342.184, 292.476 346.890 L 293.159 350 324.002 350 L 354.845 350 359.285 344.750 C 369.530 332.634, 392.742 300.376, 391.832 299.518 C 391.650 299.346, 388.125 302.375, 384 306.249 M 394.383 306.250 C 392.948 309.047, 385.134 321.012, 376.907 333.010 C 349.773 372.583, 304.828 412.443, 263.711 433.401 C 224.975 453.145, 187.629 462.426, 154.500 460.541 C 130.199 459.159, 114.703 453.762, 103.250 442.692 C 97.741 437.366, 97.831 439.191, 103.454 446.830 C 125.102 476.236, 181.126 483.360, 236.500 463.748 C 263.402 454.219, 296.739 433.373, 319.445 411.880 L 327.770 404 349.635 403.969 L 371.500 403.938 379.750 390.655 C 384.288 383.350, 388 377.064, 388 376.686 C 388 376.309, 379.888 376, 369.974 376 L 351.948 376 358.436 367.161 C 365.702 357.262, 374.461 343.723, 381.831 331 C 389.086 318.475, 397.255 303, 396.612 303 C 396.304 303, 395.301 304.462, 394.383 306.250 M 732.655 329.829 C 730.378 332.345, 730.555 337.555, 733 340 C 737.474 344.474, 745 341.122, 745 334.655 C 745 332.684, 744.249 330.630, 743.171 329.655 C 740.700 327.418, 734.747 327.517, 732.655 329.829 M 437.236 363.750 L 437.500 396.500 455 396.500 C 472.189 396.500, 472.611 396.449, 478.762 393.608 C 485.825 390.346, 491.188 385.015, 494.338 378.122 C 497.459 371.296, 497.341 356.543, 494.108 349.286 C 491.067 342.461, 483.944 335.871, 476.662 333.146 C 471.622 331.261, 468.863 331, 453.949 331 L 436.973 331 437.236 363.750 M 819 364 L 819 397 841 397 L 863 397 863 391 L 863 385 847 385 L 831 385 831 377 L 831 369 845 369 L 859 369 859 363.528 L 859 358.056 845.250 357.778 L 831.500 357.500 831.500 350 L 831.500 342.500 847.250 342.225 L 863 341.949 863 336.475 L 863 331 841 331 L 819 331 819 364 M 163.860 344.750 C 158.853 350.045, 156.009 354.427, 153.385 360.892 C 151.301 366.026, 150.787 366.558, 147.304 367.192 C 145.212 367.573, 141.837 367.911, 139.805 367.942 L 136.111 368 138.239 362.880 C 140.524 357.381, 148.609 347.823, 153.500 344.838 C 155.203 343.799, 155.828 343.006, 154.946 343.004 C 149.969 342.992, 136.813 355.121, 131.992 364.166 C 129.284 369.247, 128.433 370.028, 123.993 371.502 C 117.254 373.741, 116.811 375.047, 123.041 374.309 L 128.146 373.704 127.323 377.602 C 126.870 379.746, 126.500 385.252, 126.500 389.839 L 126.500 398.177 123 397.589 C 121.075 397.266, 118.417 396.705, 117.094 396.343 C 112.518 395.092, 115.842 397.636, 121.955 400.064 C 125.280 401.385, 128 402.923, 128.001 403.483 C 128.003 406.193, 134.225 417.076, 138.445 421.750 C 144.156 428.075, 146.105 428.628, 141.967 422.750 C 139.197 418.814, 133.637 405.029, 134.480 404.186 C 134.684 403.982, 138.164 404.126, 142.213 404.505 L 149.575 405.195 151.872 411.778 C 154.145 418.291, 159.755 428.112, 161.991 429.494 C 162.627 429.887, 162.249 428.448, 161.150 426.295 C 159.401 422.867, 157.811 417.565, 155.585 407.750 L 154.962 405 165.430 405 C 176.039 405, 196.013 402.803, 201.500 401.032 C 203.691 400.324, 202.613 400.246, 197.500 400.741 C 186.174 401.837, 156.091 401.491, 154.850 400.250 C 153.283 398.683, 154.157 373.443, 155.836 371.764 C 157.242 370.358, 191.969 369.935, 202 371.202 C 206.108 371.720, 206.741 371.656, 204.500 370.948 C 198.823 369.154, 178.879 367, 167.949 367 C 159.607 367, 157 366.689, 157 365.694 C 157 362.858, 161.304 351.878, 164.489 346.588 C 166.340 343.515, 167.753 341, 167.630 341 C 167.507 341, 165.810 342.688, 163.860 344.750 M 450.750 342.557 C 450.337 342.984, 450 352.708, 450 364.167 L 450 385 459.250 384.978 C 466.113 384.962, 469.562 384.474, 472.616 383.087 C 487.377 376.384, 487.371 351.932, 472.607 344.297 C 469.280 342.576, 452.055 341.205, 450.750 342.557 M 574.500 348.931 C 570.627 349.863, 567.693 351.459, 565.918 353.602 C 564.615 355.174, 564.460 355.092, 564 352.585 C 563.534 350.042, 563.112 349.834, 557.750 349.510 L 552 349.163 552 373.082 L 552 397 558 397 L 564 397 564 382.968 C 564 366.286, 565.036 362.719, 570.550 360.415 C 573.448 359.204, 574.857 359.128, 577.603 360.034 C 583.170 361.871, 584 364.714, 584 381.950 L 584 397 590 397 L 596 397 596 380.243 C 596 371.027, 595.561 361.955, 595.024 360.083 C 592.732 352.092, 583.106 346.862, 574.500 348.931 M 618.326 349.069 C 613.085 350.074, 609.174 352.089, 606.123 355.354 C 603.231 358.450, 603.697 359.928, 608.340 362.381 L 611.901 364.261 615.027 361.631 C 621.282 356.368, 632 359.414, 632 366.455 C 632 368.979, 631.930 369, 623.649 369 C 619.056 369, 613.769 369.511, 611.899 370.136 C 598.793 374.516, 597.974 391.331, 610.610 396.610 C 616.981 399.273, 625.166 398.053, 629.750 393.759 L 632 391.651 632 394.326 C 632 396.928, 632.162 397, 638 397 L 644 397 643.994 380.750 C 643.991 371.813, 643.532 362.857, 642.975 360.848 C 641.629 356.004, 635.261 350.297, 630.310 349.499 C 628.214 349.161, 625.600 348.746, 624.500 348.577 C 623.400 348.407, 620.622 348.629, 618.326 349.069 M 673.479 348.969 C 670.023 349.752, 665 352.801, 665 354.115 C 665 354.602, 664.550 355, 664 355 C 663.450 355, 662.997 353.762, 662.993 352.250 C 662.987 349.617, 662.752 349.489, 657.493 349.232 L 652 348.963 652 372.982 L 652 397 658 397 L 664 397 664 381.950 C 664 362.328, 665.053 360, 673.927 360 C 680.785 360, 681.452 361.742, 681.817 380.602 L 682.135 397 688.067 397 L 694 397 694 381.950 C 694 364.725, 694.890 361.632, 700.263 360.170 C 704.392 359.047, 709.066 360.788, 710.735 364.071 C 711.553 365.679, 711.975 371.652, 711.985 381.750 L 712 397 718 397 L 724 397 724 379.565 C 724 369.642, 723.540 360.917, 722.933 359.315 C 720.462 352.792, 714.131 348.714, 706.475 348.714 C 700.980 348.714, 697.932 349.911, 693.924 353.643 L 691.347 356.041 689.426 353.918 C 685.680 349.779, 679.021 347.712, 673.479 348.969 M 916.297 349.052 C 913.985 349.507, 911.060 350.411, 909.797 351.060 C 906.435 352.787, 900.992 358.179, 901.607 359.173 C 901.898 359.643, 903.928 360.943, 906.119 362.060 L 910.101 364.092 913.127 361.546 C 919.069 356.546, 928.811 358.930, 929.284 365.500 L 929.500 368.500 920 369.080 C 909.550 369.718, 906.583 370.619, 903.317 374.144 C 898.743 379.079, 898.072 386.128, 901.656 391.597 C 906.401 398.840, 921.032 400.052, 927.750 393.759 L 930 391.651 930 394.326 C 930 396.928, 930.162 397, 936 397 L 942 397 941.994 381.250 C 941.991 372.587, 941.517 363.800, 940.940 361.723 C 938.266 352.094, 927.904 346.767, 916.297 349.052 M 501.249 349.701 C 498.567 350.052, 498.154 350.422, 498.889 351.813 C 499.379 352.741, 503.680 363.156, 508.446 374.957 C 513.879 388.408, 516.913 397.210, 516.578 398.545 C 516.284 399.716, 515.082 401.898, 513.906 403.392 C 512.113 405.671, 511.124 406.060, 507.762 405.805 C 503.832 405.506, 503.731 405.582, 502.478 409.768 C 501.284 413.758, 501.337 414.110, 503.298 415.160 C 504.452 415.777, 507.685 416.315, 510.483 416.356 C 515.934 416.435, 521.440 413.847, 523.704 410.144 C 524.955 408.097, 548.003 351.111, 547.996 350.083 C 547.993 349.762, 545.194 349.500, 541.774 349.500 L 535.557 349.500 529.844 365 C 526.701 373.525, 523.960 380.922, 523.752 381.438 C 523.545 381.954, 520.649 374.979, 517.318 365.938 L 511.261 349.500 507.881 349.388 C 506.021 349.326, 503.037 349.467, 501.249 349.701 M 734.750 349.704 L 732 350.133 732 373.566 L 732 397 738.018 397 L 744.036 397 743.768 373.315 L 743.500 349.630 740.500 349.452 C 738.850 349.355, 736.263 349.468, 734.750 349.704 M 763.230 351.115 C 743.598 360.833, 746.375 391.429, 767.404 397.113 C 772.753 398.559, 780.725 397.691, 785.778 395.113 C 789.574 393.177, 795.288 387.248, 794.516 386.047 C 794.322 385.746, 792.191 384.433, 789.780 383.129 L 785.396 380.758 782.275 383.879 C 774.665 391.489, 762 384.975, 762 373.451 C 762 366.426, 766.462 360.460, 772.069 359.985 C 777.336 359.538, 779.270 360.116, 782.152 362.998 L 785.150 365.996 789.575 363.403 C 792.009 361.977, 794 360.266, 794 359.601 C 794 357.689, 787.862 352.252, 783.782 350.551 C 778.309 348.268, 768.435 348.539, 763.230 351.115 M 870 372.919 L 870 397 876 397 L 882 397 882.004 383.250 C 882.007 371.223, 882.260 369.085, 884.026 366.190 C 886.140 362.722, 891.171 360, 895.468 360 C 897.870 360, 898 359.719, 898 354.500 L 898 349 894.250 349.004 C 890.120 349.008, 884.328 352.031, 883.230 354.756 C 882.705 356.059, 882.398 355.628, 882.014 353.055 C 881.505 349.644, 881.443 349.606, 875.750 349.224 L 870 348.838 870 372.919 M 137.064 372.880 C 135.522 373.310, 134.303 374.651, 133.744 376.530 C 132.641 380.233, 132.239 397.563, 133.232 398.562 C 133.635 398.967, 137.235 399.509, 141.232 399.767 L 148.500 400.235 148.182 391.241 C 148.007 386.295, 148.284 379.942, 148.796 377.124 L 149.727 372 144.613 372.100 C 141.801 372.155, 138.404 372.506, 137.064 372.880 M 296.512 382.734 C 295.817 389.224, 293.228 400.369, 291.458 404.486 C 290.812 405.989, 291.929 405.529, 296.053 402.591 C 302.523 397.983, 319.852 384.393, 325.500 379.497 L 329.500 376.030 313.366 376.015 L 297.233 376 296.512 382.734 M 615.792 378.250 C 613.028 380.423, 612.787 383.460, 615.143 386.455 C 617.127 388.977, 617.769 389.181, 622.352 388.740 C 628.240 388.174, 632 384.747, 632 379.944 L 632 377 624.691 377 C 620.359 377, 616.735 377.509, 615.792 378.250 M 913 379 C 908.847 383.153, 912.093 389, 918.550 389 C 925.293 389, 930 384.863, 930 378.935 C 930 377.194, 929.249 377, 922.500 377 C 916.333 377, 914.644 377.356, 913 379 M 563 441 L 563 454 571.500 454 C 581.589 454, 583 452.223, 573.250 451.796 L 566.500 451.500 566.196 447.319 L 565.892 443.139 570.262 442.483 C 572.666 442.123, 575.456 441.979, 576.463 442.164 C 577.469 442.349, 578.489 441.938, 578.730 441.250 C 579.050 440.332, 577.416 440, 572.583 440 L 566 440 566 435.500 L 566 431 573 431 C 578.556 431, 580 430.690, 580 429.500 C 580 428.284, 578.389 428, 571.500 428 L 563 428 563 441 M 606.600 429.250 C 606.995 429.938, 608.821 432.585, 610.659 435.134 C 612.497 437.683, 614 440.322, 614 441 C 614 441.678, 612.497 444.317, 610.659 446.866 C 605.750 453.675, 605.621 454, 607.837 454 C 609.088 454, 610.946 452.201, 613 449 C 614.765 446.250, 616.499 444.025, 616.854 444.054 C 617.209 444.084, 618.887 446.222, 620.582 448.804 C 622.470 451.680, 624.540 453.629, 625.924 453.832 C 628.006 454.137, 627.876 453.743, 624.277 448.832 C 622.128 445.899, 620.017 442.908, 619.586 442.185 C 619.089 441.352, 620.305 438.727, 622.901 435.026 C 627.454 428.534, 627.653 428, 625.508 428 C 624.687 428, 622.549 430.242, 620.758 432.982 C 618.966 435.722, 617.209 437.972, 616.854 437.982 C 616.499 437.992, 614.765 435.750, 613 433 C 610.946 429.799, 609.088 428, 607.837 428 C 606.557 428, 606.130 428.431, 606.600 429.250 M 653 440.891 C 653 451.334, 653.279 454, 654.372 454 C 655.193 454, 655.994 452.439, 656.365 450.116 C 656.984 446.246, 657.007 446.230, 662.627 445.527 C 672.249 444.325, 676.018 437.621, 670.608 431.331 C 668.456 428.829, 667.453 428.511, 660.608 428.166 L 653 427.781 653 440.891 M 705.418 428.914 C 704.274 429.408, 702.136 431.238, 700.668 432.982 C 696.902 437.458, 696.857 445.488, 700.573 449.904 C 707.425 458.048, 721.790 454.918, 723.927 444.815 C 725.721 436.339, 720.528 428.968, 712.343 428.371 C 709.679 428.177, 706.563 428.421, 705.418 428.914 M 751 440.891 C 751 451.877, 751.243 454, 752.500 454 C 753.611 454, 754 452.833, 754 449.500 L 754 445 757.750 445.002 C 761.106 445.003, 761.799 445.477, 764.342 449.502 C 766.129 452.331, 767.909 454, 769.140 454 C 770.930 454, 770.847 453.638, 768.172 449.750 L 765.248 445.500 768.124 442.865 C 771.941 439.369, 772.072 434.356, 768.437 430.941 C 766.308 428.941, 764.612 428.469, 758.437 428.157 L 751 427.781 751 440.891 M 795 429.464 C 795 430.589, 796.069 431, 799 431 L 803 431 803 442.500 C 803 452.056, 803.254 454, 804.500 454 C 805.746 454, 806 452.062, 806 442.557 L 806 431.115 810.250 430.807 C 818.023 430.245, 814.168 428.505, 804.505 428.214 C 796.499 427.973, 795 428.170, 795 429.464 M 656.406 432.386 C 656.113 433.148, 656.015 435.735, 656.187 438.136 C 656.472 442.111, 656.756 442.529, 659.371 442.828 C 667.815 443.793, 672.948 437.948, 668 433 C 665.583 430.583, 657.266 430.143, 656.406 432.386 M 703.923 433.923 C 697.535 440.311, 702.033 451.455, 711 451.455 C 714.480 451.455, 715.704 450.895, 718.102 448.211 C 724.347 441.223, 720.128 431, 711 431 C 707.742 431, 706.216 431.631, 703.923 433.923 M 754 436.500 L 754 442 759.443 442 C 763.935 442, 765.159 441.611, 766.443 439.777 C 768.501 436.840, 768.407 435.407, 766 433 C 764.533 431.533, 762.667 431, 759 431 L 754 431 754 436.500 M 299.018 439.118 C 292.880 444.135, 277.077 455.062, 269.542 459.500 C 267.928 460.450, 374.961 460.545, 377.561 459.595 C 378.144 459.382, 381.701 454.324, 385.464 448.354 C 389.227 442.384, 392.964 436.488, 393.768 435.250 L 395.230 433 350.865 433.001 L 306.500 433.002 299.018 439.118 M 438 442 C 438 442.653, 454.833 443, 486.500 443 C 518.167 443, 535 442.653, 535 442 C 535 441.347, 518.167 441, 486.500 441 C 454.833 441, 438 441.347, 438 442 M 840 442 C 840 442.653, 856.833 443, 888.500 443 C 920.167 443, 937 442.653, 937 442 C 937 441.347, 920.167 441, 888.500 441 C 856.833 441, 840 441.347, 840 442" stroke="none" fill="black" fill-rule="evenodd"/>
</svg>
