<svg width="172" height="34" viewBox="0 0 172 34" fill="none" xmlns="http://www.w3.org/2000/svg"><path fill-rule="evenodd" clip-rule="evenodd" d="m164.882 15.155-2.869-.55c-1.221-.243-2.137-.61-2.747-1.098-.611-.488-.855-1.099-.855-1.892v-.306c0-.915.428-1.648 1.221-2.136.855-.55 1.954-.794 3.48-.794 1.587 0 2.808.306 3.662.916.855.61 1.282 1.526 1.282 2.564v.183c0 .122.122.244.244.244h2.32a.263.263 0 0 0 .244-.244v-.183c0-1.832-.671-3.358-2.075-4.456-1.404-1.1-3.236-1.649-5.616-1.649-2.381 0-4.09.489-5.494 1.527-1.404.976-2.076 2.32-2.076 4.029v.366c0 2.808 1.954 4.578 5.86 5.31l2.809.55c1.404.244 2.38.671 2.991 1.099.61.488.915 1.16.915 2.014v.305c0 .916-.427 1.71-1.343 2.26-.915.549-2.136.793-3.662.793-1.71 0-2.991-.306-3.907-.916-.916-.61-1.343-1.526-1.343-2.625v-.183a.262.262 0 0 0-.244-.244h-2.32a.262.262 0 0 0-.244.244v.183c0 1.893.732 3.358 2.136 4.456 1.404 1.1 3.358 1.649 5.8 1.649 2.441 0 4.273-.489 5.738-1.527 1.404-1.037 2.136-2.38 2.136-4.09v-.427c0-2.808-2.014-4.64-6.043-5.372Zm-12.697 2.076v-3.48c0-2.38-.733-4.273-2.198-5.738-1.465-1.465-3.419-2.198-5.799-2.198-2.381 0-4.457.733-5.922 2.198-1.465 1.465-2.258 3.357-2.258 5.738v4.945c0 2.442.732 4.334 2.258 5.738 1.526 1.404 3.48 2.137 5.983 2.137 1.526 0 2.869-.306 4.029-.855 1.221-.55 2.136-1.343 2.808-2.38a6.063 6.063 0 0 0 1.099-3.236c0-.122-.123-.244-.245-.244h-2.319c-.122 0-.245.122-.245.244-.061 1.099-.549 1.953-1.465 2.686-.976.732-2.197 1.16-3.662 1.16-1.71 0-3.053-.489-4.029-1.404-.977-.977-1.465-2.259-1.465-3.907V17.23h13.43Zm-13.43-3.358c0-1.648.488-2.99 1.465-3.968.976-.976 2.258-1.465 3.968-1.465 1.709 0 2.869.489 3.846 1.465.915.977 1.404 2.26 1.404 3.968v1.1h-10.622l-.061-1.1Zm-8.669-7.57h2.015c.183-.06.244.062.305.184v19.778c0 2.26-.733 4.03-2.198 5.311-1.465 1.282-3.479 1.893-5.982 1.893s-4.456-.61-5.921-1.832c-1.465-1.22-2.198-2.869-2.198-4.944v-.061c0-.122.122-.245.244-.245h2.381c.122 0 .244.123.244.245v.06c0 1.344.428 2.504 1.404 3.236.977.733 2.259 1.099 3.907 1.099 1.648 0 2.991-.427 3.907-1.221.916-.794 1.404-1.953 1.404-3.357v-3.541a8.377 8.377 0 0 1-2.564 1.77c-.977.428-2.075.61-3.296.61-2.32 0-4.151-.67-5.555-2.075-1.404-1.404-2.076-3.235-2.076-5.616V13.69c0-2.38.672-4.212 2.076-5.677 1.404-1.465 3.235-2.137 5.555-2.137a8.67 8.67 0 0 1 3.357.672 7.27 7.27 0 0 1 2.625 1.831l.122-1.831c0-.122.122-.244.244-.244Zm-2.625 15.506a5.146 5.146 0 0 0 2.137-2.136v-8.241a6.308 6.308 0 0 0-2.198-2.198c-.915-.55-1.953-.794-3.113-.794-1.648 0-2.991.489-3.907 1.404-.915.916-1.404 2.198-1.404 3.785v3.724c0 1.648.428 2.93 1.404 3.846.977.915 2.259 1.404 3.907 1.404a6.604 6.604 0 0 0 3.174-.794ZM110.369 7.77c-1.343-1.282-3.236-1.893-5.677-1.893-2.442 0-4.335.61-5.8 1.893-1.465 1.282-2.136 2.991-2.136 5.067v.06c0 .123.122.245.244.245h2.38a.263.263 0 0 0 .245-.244v-.123c0-1.342.427-2.38 1.343-3.174.855-.732 2.136-1.16 3.724-1.16 1.587 0 2.869.367 3.723 1.221.855.794 1.221 1.954 1.221 3.48v1.343l-6.348.854c-2.198.306-3.907.916-4.945 1.832-1.038.915-1.587 2.197-1.587 3.846 0 1.77.61 3.113 1.77 4.09 1.221.976 2.869 1.465 4.945 1.465 2.686 0 4.822-.794 6.348-2.442l.123 1.77c0 .122.122.244.244.244h2.014a.262.262 0 0 0 .244-.244V13.202c-.122-2.38-.793-4.212-2.075-5.433Zm-.855 13.124c-.549 1.038-1.343 1.832-2.381 2.442-1.037.61-2.258.916-3.54.916s-2.32-.305-3.052-.855a2.807 2.807 0 0 1-1.16-2.32c0-1.892 1.404-3.052 4.273-3.418l5.86-.794v4.03ZM85.584 5.816c2.32 0 4.152.733 5.556 2.137 1.404 1.465 2.136 3.296 2.136 5.677v5.189c0 2.38-.671 4.273-2.075 5.677-1.404 1.404-3.235 2.137-5.555 2.137-1.16 0-2.198-.183-3.236-.61-1.037-.428-1.892-.977-2.563-1.771v8.546a.263.263 0 0 1-.245.244h-2.32a.263.263 0 0 1-.243-.244V6.548c0-.122.122-.244.244-.244h2.014c.122 0 .244.122.244.244l.122 1.77c.672-.793 1.527-1.404 2.564-1.831a8.672 8.672 0 0 1 3.358-.672Zm3.358 16.727c.977-.977 1.465-2.259 1.465-3.846V13.75c0-1.587-.488-2.869-1.465-3.846-.976-.915-2.258-1.404-3.907-1.404-1.16 0-2.136.306-3.113.794a4.962 4.962 0 0 0-2.197 2.137v9.584c.488.915 1.22 1.587 2.136 2.136.916.55 2.014.794 3.174.794 1.649 0 2.93-.428 3.907-1.404Z" fill="#7FAF0D"/><path fill-rule="evenodd" clip-rule="evenodd" d="M56.71 22.725c.733 1.22 1.71 2.197 3.053 2.869 1.282.671 2.808 1.038 4.578 1.038 2.625 0 4.762-.733 6.349-2.259 1.587-1.465 2.38-3.48 2.38-5.982v-4.518c0-1.648-.366-3.052-1.098-4.334-.672-1.282-1.77-2.258-3.052-2.93-1.282-.671-2.87-1.038-4.579-1.038-1.709 0-3.235.367-4.578 1.038-1.343.672-2.32 1.648-3.052 2.93-.733 1.282-1.1 2.686-1.1 4.334v4.518c0 1.648.367 3.113 1.1 4.334Zm11.782-4.456c0 1.282-.366 2.258-1.099 2.99-.732.733-1.709 1.1-2.99 1.1-1.283 0-2.26-.367-3.053-1.1-.794-.732-1.16-1.709-1.16-2.99v-4.212c0-1.282.366-2.32 1.099-3.053.733-.732 1.77-1.099 3.052-1.099s2.32.367 3.053 1.1c.732.732 1.098 1.77 1.098 3.051v4.213ZM51.461 6.059h2.442c.122 0 .244.123.366.245v3.723c-.061.123-.122.184-.244.184h-2.686c-.855 0-1.648.183-2.32.55-.733.365-1.282.915-1.71 1.586V25.9c-.06.122-.121.183-.243.183h-4.09a.263.263 0 0 1-.245-.244V6.243c0-.122.122-.244.244-.244h3.602c.122 0 .244.122.244.244l.122 1.16c1.221-.855 2.748-1.343 4.518-1.343Zm-13.247.245c0-.122-.061-.183-.183-.244H33.88a.263.263 0 0 0-.244.244V20.16c-.428.671-1.038 1.22-1.71 1.648-.732.366-1.526.61-2.441.61-1.1 0-1.954-.366-2.625-1.098-.672-.733-1.038-1.71-1.038-2.87V6.305a.263.263 0 0 0-.244-.244h-4.09a.263.263 0 0 0-.244.244v12.453c0 2.38.671 4.273 2.014 5.738 1.343 1.404 3.174 2.137 5.433 2.137s3.968-.672 5.372-1.954l.122 1.282c0 .122.122.183.244.183h3.602a.263.263 0 0 0 .244-.244l-.061-19.595Zm-20.877 7.508v3.968l-12.698.061v.489c0 1.343.367 2.32 1.1 3.052.732.732 1.83 1.099 3.174 1.099 1.098 0 2.014-.245 2.746-.733.611-.427.977-.916 1.1-1.526 0-.061.121-.183.243-.183h4.09c.123 0 .245.122.245.244-.183 1.831-1.038 3.419-2.503 4.578-1.526 1.221-3.54 1.832-5.983 1.832-2.685 0-4.761-.733-6.41-2.259C.795 22.908 0 20.954 0 18.452v-4.579c0-1.648.427-3.113 1.099-4.334.671-1.22 1.71-2.197 3.052-2.869C5.494 6 7.021 5.632 8.729 5.632c1.71 0 3.236.367 4.518 1.038 1.282.672 2.258 1.648 2.99 2.87.733 1.22 1.1 2.624 1.1 4.272ZM5.738 10.943c-.732.733-1.099 1.77-1.099 3.053l8.18.06v-.06c0-1.283-.366-2.32-1.098-3.053-.733-.732-1.71-1.099-2.93-1.099-1.283 0-2.32.367-3.053 1.1Z" fill="#fff"/></svg>