<?xml version="1.0" encoding="UTF-8"?>
<svg id="Layer_1" data-name="Layer 1" xmlns="http://www.w3.org/2000/svg" viewBox="0 0 242 54">
  <defs>
    <style>
      .cls-1 {
        fill: #233e7d;
      }
    </style>
  </defs>
  <g>
    <path class="cls-1" d="M195.83,27.65c-.61-2.49-2.54-4.02-5.79-4.59l-3.34-.6c-.46-.08-.84-.16-1.14-.26-.8-.27-1.2-.74-1.2-1.43,0-.21.05-.41.14-.6.4-.68,1.28-1.03,2.65-1.03h.34c1.27.04,2.79.45,4.56,1.23.23.11.46.17.68.17.44,0,.78-.26,1.03-.77l1.2-2.48c-2.36-1.54-4.96-2.32-7.81-2.34-2.01,0-3.74.48-5.19,1.43-1.73,1.16-2.59,2.72-2.59,4.67,0,.38.03.74.09,1.08.36,2.62,2.24,4.25,5.64,4.87.36.06.9.16,1.62.31.7.11,1.24.21,1.6.29.49.1.92.2,1.28.31.93.32,1.4.85,1.4,1.57,0,.13-.02.27-.06.4-.27.91-1.23,1.37-2.88,1.37-1.35,0-2.86-.29-4.53-.88-.3-.11-.65-.26-1.03-.43-.78-.4-1.24-.6-1.37-.6-.32,0-.57.16-.74.48l-1.4,2.99c2.17,1.5,4.5,2.39,7.01,2.68l.63.07c-.47.7-1.13,1.15-1.9,1.49-.57.26-.64,1.02-.14,1.4.7.53,1.14,1.25,1.37,2.21,1.81-1.38,2.81-3.07,3.02-5.12l.55-.05c.89-.11,1.72-.31,2.48-.6,2.64-1.03,3.96-2.92,3.96-5.67,0-.55-.06-1.08-.17-1.6Z"/>
    <path class="cls-1" d="M116.84,35.26h-3.53v-18.67c.04-.84.47-1.26,1.28-1.28h3.53v7.9h0l4.73-7.07c.38-.55.9-.83,1.57-.83h4.3l-6.7,9.95,7.27,10.01h-5.53l-5.64-7.78h0v6.5c-.04.84-.47,1.26-1.28,1.28Z"/>
    <path class="cls-1" d="M135.62,35.26h-3.53v-18.67c.04-.84.47-1.26,1.28-1.28h3.54v18.67c-.04.84-.47,1.26-1.28,1.28Z"/>
    <path class="cls-1" d="M132.29,11.83c0-.85.39-1.48,1.17-1.88.32-.15.67-.23,1.05-.23.87,0,1.52.36,1.94,1.08.17.32.26.67.26,1.03,0,.87-.38,1.5-1.14,1.88-.34.17-.69.26-1.05.26-.93,0-1.6-.38-2-1.14-.15-.32-.23-.66-.23-1Z"/>
    <path class="cls-1" d="M143.98,35.26h-3.56v-18.67c.04-.84.47-1.26,1.28-1.28h7.61c2.62,0,4.68.87,6.19,2.62,1.14,1.37,1.71,3.02,1.71,4.96,0,2.53-.91,4.49-2.74,5.87-1.43,1.06-3.15,1.6-5.16,1.6h-4.05v3.62c-.04.84-.47,1.26-1.28,1.28ZM145.24,19.61v6.44h4.02c1.22,0,2.1-.49,2.65-1.48.28-.49.43-1.05.43-1.68,0-1.33-.51-2.29-1.54-2.88-.48-.27-.99-.4-1.54-.4h-4.02Z"/>
    <path class="cls-1" d="M160.43,35.26h-4.05l7.58-18.96c.27-.65.76-.98,1.48-1h4.13l8.01,19.95h-4.05c-.72-.02-1.21-.36-1.45-1.03l-.91-2.39h-8.38l-.91,2.39c-.27.67-.75,1.01-1.45,1.03ZM166.99,20.66l-2.68,7.1h5.36l-2.68-7.1Z"/>
  </g>
  <g>
    <path class="cls-1" d="M86.8,33.98s1.67,1.98,2.35,2.86c.4.52,1.06,1.48,1.3,1.84-.67-.42-1.72-.98-3.31-1.71-1.86-.85-3.66-1.17-5.25-1.82-1.46-.59-2.57-1.83-2.57-1.83,0,0,.73,1.12,1.77,2.32.56.65,1.36,1.11,2.14,1.54-.98-.12-1.95-.16-2.82-.07-6.63.64-11.05,2.33-17.33,4.41-5.23,1.73-7.52-.17-7.52-.17,0,0,2.15-1.36,3.34-2.56,1.32-1.34,2.47-3.32,2.97-4.32s1.14-2.44,1.14-2.44c0,0-2.2.85-3.43,1.28-1.24.44-3.33,1.08-5.69,1.71-2.36.64-4.4.42-4.4.42,0,0,2.49-1.93,4.89-4.15,2.41-2.22,4.09-4.41,5.14-6.42,1.05-2.01,1.67-3.36,1.67-3.36,0,0-2.49.43-4.27.19-1.93-.26-3.55-.91-3.55-.91,0,0,1.11-.42,2.35-1.16,1.24-.74,2.23-1.37,3.98-2.52,1.21-.79,2.61-2.01,7.94-4.91,4.9-2.67,7.2-2.16,10.34-1.97,3.03.18,6.61,2.16,6.61,2.16,0,0-2.1-2.27-5.81-2.99-4.53-.88-8.1-.22-11.52,1.54-3.29,1.7-10.04,6.02-13.12,7.39-2.32,1.02-5.19,1.15-5.19,1.15,0,0,1.59,1.54,4.25,2.5,2.04.73,5.51.72,5.51.72,0,0-1.06,3.09-4.68,7.06-2.48,2.72-8.05,6.75-8.05,6.75,0,0,3.86.62,8.28-.72,3.55-1.08,7.71-2.77,7.71-2.77,0,0-1.8,2.95-4.12,4.84-2.33,1.88-6.69,3.55-6.69,3.55,0,0,2.41,1.54,4.05,1.86,1.64.32,5.94.63,14.65-2.06,8.7-2.69,13.27-1.99,17.68-.71,3.83,1.11,8.42,4.42,8.42,4.42,0,0-1.18-2.77-3.25-5.71-2.07-2.94-5.92-5.26-5.92-5.26Z"/>
    <path class="cls-1" d="M86.92,13.3c4.2-.08,6.08.54,6.6.8.54.27,2.12,1.01,2.12,1.01,0,0,3.15.1,6.68.42,3.45.31,5.6.75,5.9,1.16.32.43-.39,1.63-.61,2.77-.22,1.14-.46,2.1-.41,2.47.05.37,1.75,4.45,1.63,5.53-.16,1.4-1.55,3.36-2.66,3.9-2,.97-3.15.6-4.53.05-1.02-.4-1.59-.55-2.53-.65-.89-.09-2.87.97-5.65,2.09-5.35,2.15-10.06-1.01-10.06-1.01,0,0,3.1,1.06,5.36,1.05,1.84-.01,3.16-.54,5.27-1.51,2.11-.97,4.62-2.02,5.03-1.98.29.03,2.55,1.32,3.3,1.56.85.27,2.42.33,3.32-.29,2.02-1.4,1.09-3.13,1.08-3.44,0-.19-.42-2.19-.77-3.32,0,0-.12.05-.8.4-.73.37-1.15.4-1.15.4,0,0,.96-.92,1.52-2.42.44-1.15.46-2.21.49-2.84.03-.68-.28-1.41-.48-1.58-.26-.23-2.39-.8-5.93-.96-3.25-.15-5.31-.05-5.31-.05,0,0-.13.34-1.18.79-.87.37-1.81.13-1.81.13,0,0,.27-.23.94-.99.73-.82.55-1.16.55-1.16,0,0-.24-.2-.77-.35-.51-.15-2.2-.35-5.34-.3-1.43.02-2.53.22-2.8.28-1.65.34-4.26,1.02-4.99,1.27-.69.24-3.73-.1-3.73-.1,0,0,.22,1.17,1,2.39.77,1.2,1.39,1.74,2.18,2.14s3.35,1.23,3.35,1.23c0,0-2.65.05-4.19-.27-1.43-.3-1.99-.57-3.06-1.61-1.11-1.07-1.37-2.04-1.8-3.05-.42-.97-.5-2.54-.5-2.54,0,0,1.27-.83,3.06-.66,1.33.12,3.11.39,3.11.39,0,0,2.55-.71,3.61-.86.36-.05,3.22-.23,4.94-.26Z"/>
  </g>
</svg>