<svg xmlns="http://www.w3.org/2000/svg" xmlns:xlink="http://www.w3.org/1999/xlink" width="281.2560119628906" height="60.29600143432617" viewBox="0 0 281.256 60.296">
  <defs>
    <clipPath id="clip-path">
      <rect id="Rectangle_5" data-name="Rectangle 5" width="281.256" height="60.296" fill="none" class="cvz-svg-1"></rect>
    </clipPath>
    <clipPath id="clip-path-3">
      <rect id="Rectangle_1" data-name="Rectangle 1" width="27.09" height="54.765" fill="none" class="cvz-svg-2"></rect>
    </clipPath>
  </defs>
  <g id="Group_6" data-name="Group 6" clip-path="url(#clip-path)">
    <g id="Group_5" data-name="Group 5" transform="translate(0 0)">
      <g id="Group_4" data-name="Group 4" clip-path="url(#clip-path)">
        <path id="Path_1" data-name="Path 1" d="M128.011,79a1.614,1.614,0,0,1-1.13,1.645,3.179,3.179,0,0,1-1.1.163,9.936,9.936,0,0,1-1.5-.127c-.114-.018-.172-.072-.172-.163v-.362c0-.1.052-.144.154-.144h.027a3.39,3.39,0,0,1,.37.027q.271.027.38.027h.741q1.374.036,1.374-1.066a1.117,1.117,0,0,0-.57-.876c-.126-.09-.3-.2-.515-.334l-.876-.534q-1.247-.76-1.247-1.69,0-1.6,2.16-1.6a12.465,12.465,0,0,1,1.545.1c.12.03.181.084.181.163v.389c0,.1-.051.145-.154.145h-.018q.136,0-.723-.036-.425-.018-.832-.018a2.386,2.386,0,0,0-.913.127.725.725,0,0,0-.416.732,1.016,1.016,0,0,0,.542.8c.193.132.34.229.443.289l.832.5a2.789,2.789,0,0,1,1.346,1.338,1.716,1.716,0,0,1,.073.506" transform="translate(-51.305 -30.618)" fill="#14ace3" class="cvz-svg-3"></path>
        <path id="Path_2" data-name="Path 2" d="M137.835,81.843q0,.181-.173.181H137.2c-.116,0-.173-.06-.173-.181v-.172a2.99,2.99,0,0,1-1.433.416q-1.568,0-1.568-1.881V77.234a.161.161,0,0,1,.183-.181h.439a.161.161,0,0,1,.183.181v2.974a1.551,1.551,0,0,0,.188.867.912.912,0,0,0,.8.326,2.871,2.871,0,0,0,1.21-.352V77.234a.16.16,0,0,1,.183-.181h.448c.115,0,.173.06.173.181Z" transform="translate(-55.48 -31.895)" fill="#14ace3" class="cvz-svg-4"></path>
        <path id="Path_3" data-name="Path 3" d="M147.425,80.733q0,1.311-1.69,1.311-1.618,0-1.618-.316v-.316q0-.135.162-.135h.036q.531.063,1.126.09c.132.006.228.009.288.009q.892,0,.892-.64,0-.343-.671-.748l-.912-.544a1.552,1.552,0,0,1-.921-1.293q0-1.2,1.636-1.2a8.827,8.827,0,0,1,1.41.117c.115.019.172.079.172.181v.3a.135.135,0,0,1-.153.154h-.027q.026,0-.621-.045-.4-.027-.775-.027a1.6,1.6,0,0,0-.567.072.447.447,0,0,0-.27.452.553.553,0,0,0,.214.416,3.675,3.675,0,0,0,.4.271l.895.533a1.665,1.665,0,0,1,.994,1.365" transform="translate(-59.655 -31.851)" fill="#14ace3" class="cvz-svg-5"></path>
        <path id="Path_4" data-name="Path 4" d="M155.457,81.084c0,.079-.06.133-.18.162.072,0,0,.006-.208.018s-.332.018-.361.018a1.344,1.344,0,0,1-.949-.271,1.283,1.283,0,0,1-.28-.941V76.917l-.877-.1c-.114-.012-.172-.067-.172-.163v-.244c0-.108.058-.162.172-.162h.877v-.886a.169.169,0,0,1,.164-.181l.5-.072c.091,0,.138.051.138.153v.986h.968a.159.159,0,0,1,.179.181v.308a.159.159,0,0,1-.179.181h-.968v3.154a.772.772,0,0,0,.094.443.469.469,0,0,0,.39.127h.5q.188,0,.188.127Z" transform="translate(-63.096 -31.091)" fill="#14ace3" class="cvz-svg-6"></path>
        <path id="Path_5" data-name="Path 5" d="M164.432,81.8a.163.163,0,0,1-.188.181h-.43a.163.163,0,0,1-.187-.181v-.2a2.762,2.762,0,0,1-1.379.443,1.292,1.292,0,0,1-1.459-1.465V80.47a1.244,1.244,0,0,1,.694-1.22,3.429,3.429,0,0,1,1.477-.244h.667v-.362a1.17,1.17,0,0,0-.212-.786.984.984,0,0,0-.753-.235q-.658,0-1.378.072h-.045q-.162,0-.162-.144v-.316c0-.1.063-.154.19-.172a9.761,9.761,0,0,1,1.4-.117q1.763,0,1.763,1.7Zm-.8-2.224h-.663a2.6,2.6,0,0,0-.941.118.753.753,0,0,0-.43.768v.108a.863.863,0,0,0,.192.632.876.876,0,0,0,.632.19,2.489,2.489,0,0,0,1.209-.362Z" transform="translate(-66.556 -31.85)" fill="#14ace3" class="cvz-svg-7"></path>
        <path id="Path_6" data-name="Path 6" d="M171.525,74.749a.158.158,0,0,1-.177.181H170.9a.158.158,0,0,1-.177-.181v-.723a.158.158,0,0,1,.177-.181h.451a.158.158,0,0,1,.177.181Zm0,5.767a.161.161,0,0,1-.183.181H170.9a.161.161,0,0,1-.183-.181v-4.61a.161.161,0,0,1,.183-.181h.439a.161.161,0,0,1,.183.181Z" transform="translate(-70.667 -30.567)" fill="#14ace3" class="cvz-svg-8"></path>
        <path id="Path_7" data-name="Path 7" d="M179.645,81.8a.161.161,0,0,1-.183.181h-.439a.16.16,0,0,1-.182-.181V78.825a1.559,1.559,0,0,0-.188-.868.916.916,0,0,0-.8-.325,2.873,2.873,0,0,0-1.21.353V81.8a.161.161,0,0,1-.183.181h-.448q-.174,0-.174-.181v-4.61c0-.12.058-.181.174-.181h.457c.116,0,.174.06.174.181v.172a2.99,2.99,0,0,1,1.432-.416q1.568,0,1.568,1.88Z" transform="translate(-72.786 -31.85)" fill="#14ace3" class="cvz-svg-9"></path>
        <path id="Path_8" data-name="Path 8" d="M189.261,81.8c0,.121-.062.181-.188.181h-.43c-.125,0-.188-.06-.188-.181v-.2a2.76,2.76,0,0,1-1.379.443,1.292,1.292,0,0,1-1.459-1.465V80.47a1.244,1.244,0,0,1,.694-1.22,3.431,3.431,0,0,1,1.477-.244h.667v-.362a1.166,1.166,0,0,0-.212-.786.982.982,0,0,0-.752-.235q-.658,0-1.378.072h-.045c-.108,0-.162-.048-.162-.144v-.316q0-.144.19-.172a9.768,9.768,0,0,1,1.4-.117q1.762,0,1.762,1.7Zm-.8-2.224h-.663a2.6,2.6,0,0,0-.941.118.754.754,0,0,0-.43.768v.108a.86.86,0,0,0,.193.632.874.874,0,0,0,.632.19,2.485,2.485,0,0,0,1.209-.362Z" transform="translate(-76.834 -31.85)" fill="#14ace3" class="cvz-svg-10"></path>
        <path id="Path_9" data-name="Path 9" d="M199.205,78.565a2.481,2.481,0,0,1-.461,1.6,1.816,1.816,0,0,1-1.509.633,9.027,9.027,0,0,1-1.663-.154.2.2,0,0,1-.19-.207V74.109c0-.114.055-.172.165-.172h.466a.153.153,0,0,1,.174.172V75.79a6.156,6.156,0,0,1,1.054-.09q1.964,0,1.964,2.214Zm-.8-.649q0-1.511-1.166-1.511h-.242a4.924,4.924,0,0,0-.806.063v3.571q.7.054,1.048.054a1.028,1.028,0,0,0,.951-.45,2.154,2.154,0,0,0,.215-1.08Z" transform="translate(-80.876 -30.605)" fill="#14ace3" class="cvz-svg-11"></path>
        <path id="Path_10" data-name="Path 10" d="M206.226,80.554q0,.181-.165.181h-.475q-.164,0-.165-.181V74.109c0-.114.055-.172.165-.172h.475c.11,0,.165.058.165.172Z" transform="translate(-85.031 -30.605)" fill="#14ace3" class="cvz-svg-12"></path>
        <path id="Path_11" data-name="Path 11" d="M214.336,79.548q0,.2-.171.2h-3.02v.125q0,1.465,1.253,1.465a12.548,12.548,0,0,0,1.6-.09h.045c.1,0,.144.042.144.127v.307a.2.2,0,0,1-.18.208,8.736,8.736,0,0,1-1.618.154,1.955,1.955,0,0,1-1.527-.578,2.279,2.279,0,0,1-.524-1.591V79.06a2.212,2.212,0,0,1,.515-1.55,1.915,1.915,0,0,1,1.491-.565q1.989,0,1.988,2.115Zm-.8-.488q0-1.41-1.179-1.41-1.206,0-1.207,1.41v.081h2.386Z" transform="translate(-87.068 -31.85)" fill="#14ace3" class="cvz-svg-13"></path>
        <path id="Path_12" data-name="Path 12" d="M229.713,81.8a.163.163,0,0,1-.187.181H229.1a.162.162,0,0,1-.186-.181v-.2a2.765,2.765,0,0,1-1.379.443,1.293,1.293,0,0,1-1.46-1.465V80.47a1.244,1.244,0,0,1,.694-1.22,3.431,3.431,0,0,1,1.477-.244h.668v-.362a1.166,1.166,0,0,0-.212-.786.983.983,0,0,0-.752-.235q-.658,0-1.378.072h-.045c-.108,0-.162-.048-.162-.144v-.316q0-.144.19-.172a9.774,9.774,0,0,1,1.4-.117q1.763,0,1.762,1.7Zm-.8-2.224h-.663a2.6,2.6,0,0,0-.941.118.753.753,0,0,0-.43.768v.108a.863.863,0,0,0,.193.632.874.874,0,0,0,.632.19,2.489,2.489,0,0,0,1.21-.362Z" transform="translate(-93.578 -31.85)" fill="#14ace3" class="cvz-svg-14"></path>
        <path id="Path_13" data-name="Path 13" d="M239.638,81.8a.161.161,0,0,1-.183.181h-.439a.161.161,0,0,1-.183-.181V78.825a1.555,1.555,0,0,0-.188-.868.917.917,0,0,0-.8-.325,2.871,2.871,0,0,0-1.21.353V81.8a.161.161,0,0,1-.183.181h-.448c-.115,0-.173-.06-.173-.181v-4.61c0-.12.058-.181.173-.181h.457c.116,0,.174.06.174.181v.172a2.99,2.99,0,0,1,1.432-.416q1.568,0,1.568,1.88Z" transform="translate(-97.62 -31.85)" fill="#14ace3" class="cvz-svg-15"></path>
        <path id="Path_14" data-name="Path 14" d="M249.465,80.436a.2.2,0,0,1-.189.207,9.036,9.036,0,0,1-1.663.154,1.818,1.818,0,0,1-1.51-.632,2.483,2.483,0,0,1-.461-1.6v-.651q0-2.214,1.964-2.214a6.171,6.171,0,0,1,1.054.09V74.109a.153.153,0,0,1,.173-.172h.466c.109,0,.164.057.164.172Zm-.8-3.968a6.079,6.079,0,0,0-1.05-.063q-1.165,0-1.165,1.514v.649a2.156,2.156,0,0,0,.214,1.082,1.026,1.026,0,0,0,.95.451q.35,0,1.05-.055Z" transform="translate(-101.68 -30.605)" fill="#14ace3" class="cvz-svg-16"></path>
        <path id="Path_15" data-name="Path 15" d="M266.8,80.63a.1.1,0,0,1-.118.117H266.1a.257.257,0,0,1-.236-.117l-1.618-2.694h-.236q-.455,0-1-.027v2.657c0,.12-.053.181-.16.181h-.483c-.107,0-.162-.06-.162-.181V74.239c0-.114.073-.181.217-.2a13.445,13.445,0,0,1,1.591-.073q2.531,0,2.531,1.943v.063a1.72,1.72,0,0,1-1.418,1.826l1.642,2.75a.122.122,0,0,1,.03.08m-1.067-4.719a1.031,1.031,0,0,0-.545-.994,2.62,2.62,0,0,0-1.179-.208h-.788a1.1,1.1,0,0,0-.209.018v2.486c.4.012.731.018,1,.018a2.572,2.572,0,0,0,1.207-.217,1.087,1.087,0,0,0,.517-1.039Z" transform="translate(-108.535 -30.618)" fill="#14ace3" class="cvz-svg-17"></path>
        <path id="Path_16" data-name="Path 16" d="M276.841,79.548q0,.2-.17.2h-3.02v.125q0,1.465,1.253,1.465a12.535,12.535,0,0,0,1.6-.09h.044c.1,0,.145.042.145.127v.307a.2.2,0,0,1-.182.208,8.729,8.729,0,0,1-1.618.154,1.956,1.956,0,0,1-1.527-.578,2.28,2.28,0,0,1-.525-1.591V79.06a2.212,2.212,0,0,1,.516-1.55,1.912,1.912,0,0,1,1.49-.565q1.99,0,1.989,2.115Zm-.8-.488q0-1.41-1.179-1.41-1.206,0-1.206,1.41v.081h2.385Z" transform="translate(-112.941 -31.85)" fill="#14ace3" class="cvz-svg-18"></path>
        <path id="Path_17" data-name="Path 17" d="M283.782,80.554c0,.121-.056.181-.165.181h-.475c-.11,0-.164-.06-.164-.181V74.109c0-.114.055-.172.164-.172h.475a.15.15,0,0,1,.165.172Z" transform="translate(-117.134 -30.605)" fill="#14ace3" class="cvz-svg-19"></path>
        <path id="Path_18" data-name="Path 18" d="M289.149,74.749a.158.158,0,0,1-.177.181h-.45a.158.158,0,0,1-.177-.181v-.723a.158.158,0,0,1,.177-.181h.45a.158.158,0,0,1,.177.181Zm0,5.767a.161.161,0,0,1-.183.181h-.438a.161.161,0,0,1-.183-.181v-4.61a.16.16,0,0,1,.183-.181h.438a.161.161,0,0,1,.183.181Z" transform="translate(-119.356 -30.567)" fill="#14ace3" class="cvz-svg-20"></path>
        <path id="Path_19" data-name="Path 19" d="M296.8,81.8a.162.162,0,0,1-.186.181h-.431A.162.162,0,0,1,296,81.8v-.2a2.767,2.767,0,0,1-1.38.443,1.292,1.292,0,0,1-1.459-1.465V80.47a1.243,1.243,0,0,1,.694-1.22,3.428,3.428,0,0,1,1.477-.244H296v-.362a1.166,1.166,0,0,0-.212-.786.985.985,0,0,0-.753-.235q-.657,0-1.378.072h-.045c-.108,0-.163-.048-.163-.144v-.316c0-.1.063-.154.191-.172a9.76,9.76,0,0,1,1.4-.117q1.763,0,1.762,1.7Zm-.8-2.224h-.663a2.6,2.6,0,0,0-.94.118.752.752,0,0,0-.431.768v.108a.7.7,0,0,0,.824.822A2.488,2.488,0,0,0,296,81.03Z" transform="translate(-121.348 -31.85)" fill="#14ace3" class="cvz-svg-21"></path>
        <path id="Path_20" data-name="Path 20" d="M306.742,78.565a2.481,2.481,0,0,1-.461,1.6,1.818,1.818,0,0,1-1.51.633,9.036,9.036,0,0,1-1.663-.154.2.2,0,0,1-.189-.207V74.109c0-.114.054-.172.163-.172h.467a.153.153,0,0,1,.174.172V75.79a6.161,6.161,0,0,1,1.054-.09q1.963,0,1.965,2.214Zm-.8-.649q0-1.511-1.166-1.511h-.242a4.922,4.922,0,0,0-.806.063v3.571c.465.036.816.054,1.048.054a1.029,1.029,0,0,0,.951-.45,2.148,2.148,0,0,0,.215-1.08Z" transform="translate(-125.389 -30.605)" fill="#14ace3" class="cvz-svg-22"></path>
        <path id="Path_21" data-name="Path 21" d="M313.763,80.554c0,.121-.055.181-.164.181h-.475c-.11,0-.165-.06-.165-.181V74.109a.15.15,0,0,1,.165-.172h.475c.11,0,.164.058.164.172Z" transform="translate(-129.544 -30.605)" fill="#14ace3" class="cvz-svg-23"></path>
        <path id="Path_22" data-name="Path 22" d="M321.874,79.548q0,.2-.171.2h-3.019v.125q0,1.465,1.253,1.465a12.543,12.543,0,0,0,1.6-.09h.044c.1,0,.145.042.145.127v.307a.2.2,0,0,1-.182.208,8.717,8.717,0,0,1-1.617.154,1.958,1.958,0,0,1-1.528-.578,2.282,2.282,0,0,1-.524-1.591V79.06a2.212,2.212,0,0,1,.516-1.55,1.911,1.911,0,0,1,1.49-.565q1.99,0,1.989,2.115Zm-.8-.488q0-1.41-1.179-1.41-1.207,0-1.206,1.41v.081h2.385Z" transform="translate(-131.581 -31.85)" fill="#14ace3" class="cvz-svg-24"></path>
        <path id="Path_23" data-name="Path 23" d="M338.683,77.973a3.448,3.448,0,0,1-.45,1.862,2.054,2.054,0,0,1-1.592.958v.389a.594.594,0,0,0,.107.43.729.729,0,0,0,.449.095h.529c.131,0,.2.048.2.145v.307q0,.217-.733.217a1.673,1.673,0,0,1-1-.235,1.129,1.129,0,0,1-.352-.949v-.407a2.1,2.1,0,0,1-1.889-1.636,4.13,4.13,0,0,1-.154-1.175V76.806a3.223,3.223,0,0,1,.569-2.025,2.579,2.579,0,0,1,3.76,0,3.255,3.255,0,0,1,.561,2.025Zm-.832-1.166q0-2.1-1.609-2.1t-1.618,2.1v1.166q0,2.1,1.618,2.1t1.609-2.1Z" transform="translate(-138.169 -30.618)" fill="#14ace3" class="cvz-svg-25"></path>
        <path id="Path_24" data-name="Path 24" d="M350.467,78.351q0,2.5-2.314,2.5t-2.314-2.5v-4.1a.152.152,0,0,1,.172-.172h.488a.152.152,0,0,1,.171.172v4.1a2.268,2.268,0,0,0,.3,1.292,1.659,1.659,0,0,0,2.378.009,2.32,2.32,0,0,0,.289-1.3v-4.1a.152.152,0,0,1,.172-.172h.488a.152.152,0,0,1,.172.172Z" transform="translate(-143.155 -30.663)" fill="#14ace3" class="cvz-svg-26"></path>
        <path id="Path_25" data-name="Path 25" d="M361.955,80.6c0,.1-.052.145-.152.145h-.53c-.078,0-.128-.046-.152-.137l-.59-2.078h-2.338l-.583,2.08a.158.158,0,0,1-.162.135h-.536c-.1,0-.154-.048-.154-.145a.142.142,0,0,1,.009-.063l1.671-5.885a.874.874,0,0,1,.922-.687.857.857,0,0,1,.913.678l1.673,5.893a.153.153,0,0,1,.009.063m-2.415-5.76c-.03-.113-.088-.17-.174-.17s-.153.058-.183.173l-.82,2.982h2.006Z" transform="translate(-147.674 -30.618)" fill="#14ace3" class="cvz-svg-27"></path>
        <path id="Path_26" data-name="Path 26" d="M372.642,80.647a.111.111,0,0,1-.091.127,12.224,12.224,0,0,1-1.763.081,2.263,2.263,0,0,1-1.41-.353,1.562,1.562,0,0,1-.516-1.329V74.257a.16.16,0,0,1,.181-.181h.46a.16.16,0,0,1,.182.181v4.917a.9.9,0,0,0,.28.778,1.538,1.538,0,0,0,.831.162h1.745c.065,0,.1.036.1.108Z" transform="translate(-152.686 -30.663)" fill="#14ace3" class="cvz-svg-28"></path>
        <path id="Path_27" data-name="Path 27" d="M379.032,80.612c0,.121-.054.181-.162.181h-.5c-.109,0-.162-.06-.162-.181V74.248c0-.114.053-.171.162-.171h.5c.108,0,.162.057.162.171Z" transform="translate(-156.555 -30.663)" fill="#14ace3" class="cvz-svg-29"></path>
        <path id="Path_28" data-name="Path 28" d="M387.46,74.636c0,.1-.058.145-.172.145h-1.763v5.83c0,.12-.054.181-.162.181h-.5c-.108,0-.162-.06-.162-.181v-5.83h-1.763c-.121,0-.181-.048-.181-.145v-.4c0-.108.059-.163.181-.163h4.347c.114,0,.172.055.172.163Z" transform="translate(-158.438 -30.663)" fill="#14ace3" class="cvz-svg-30"></path>
        <path id="Path_29" data-name="Path 29" d="M398.045,74.2a.279.279,0,0,1-.026.1l-1.4,3.145a1.1,1.1,0,0,1-.488.6v2.567c0,.121-.054.181-.163.181h-.5c-.108,0-.162-.06-.162-.181V78.045a1.02,1.02,0,0,1-.489-.6L393.428,74.3a.263.263,0,0,1-.028-.1c0-.084.052-.126.152-.126h.55a.174.174,0,0,1,.162.128l1.247,2.929c.065.155.136.233.207.233s.142-.079.21-.236l1.254-2.929a.172.172,0,0,1,.155-.124h.554c.1,0,.154.042.154.126" transform="translate(-162.842 -30.663)" fill="#14ace3" class="cvz-svg-31"></path>
        <path id="Path_30" data-name="Path 30" d="M411.647,74.749a.158.158,0,0,1-.176.181h-.451a.159.159,0,0,1-.177-.181v-.723a.158.158,0,0,1,.177-.181h.451a.158.158,0,0,1,.176.181Zm0,5.767a.161.161,0,0,1-.183.181h-.439a.161.161,0,0,1-.183-.181v-4.61a.16.16,0,0,1,.183-.181h.439a.161.161,0,0,1,.183.181Z" transform="translate(-170.062 -30.567)" fill="#14ace3" class="cvz-svg-32"></path>
        <path id="Path_31" data-name="Path 31" d="M419.767,81.8a.161.161,0,0,1-.183.181h-.439a.16.16,0,0,1-.182-.181V78.825a1.559,1.559,0,0,0-.188-.868.918.918,0,0,0-.8-.325,2.873,2.873,0,0,0-1.211.353V81.8a.161.161,0,0,1-.183.181h-.447c-.117,0-.174-.06-.174-.181v-4.61c0-.12.057-.181.174-.181h.456a.157.157,0,0,1,.174.181v.172a2.991,2.991,0,0,1,1.432-.416q1.568,0,1.569,1.88Z" transform="translate(-172.182 -31.85)" fill="#14ace3" class="cvz-svg-33"></path>
        <path id="Path_32" data-name="Path 32" d="M434.745,80.554a.161.161,0,0,1-.183.181h-.439a.161.161,0,0,1-.183-.181V77.586q0-1.182-.959-1.182a2.84,2.84,0,0,0-1.237.253v3.9a.161.161,0,0,1-.183.181h-.447c-.117,0-.174-.06-.174-.181V74.118c0-.121.057-.181.174-.181h.456q.174,0,.174.181V75.98a3.36,3.36,0,0,1,1.38-.28q1.621,0,1.622,1.88Z" transform="translate(-178.381 -30.605)" fill="#14ace3" class="cvz-svg-34"></path>
        <path id="Path_33" data-name="Path 33" d="M444.6,79.548q0,.2-.171.2h-3.019v.125q0,1.465,1.253,1.465a12.543,12.543,0,0,0,1.6-.09h.044c.1,0,.145.042.145.127v.307a.2.2,0,0,1-.182.208,8.718,8.718,0,0,1-1.617.154,1.956,1.956,0,0,1-1.527-.578,2.28,2.28,0,0,1-.525-1.591V79.06a2.212,2.212,0,0,1,.516-1.55,1.911,1.911,0,0,1,1.49-.565q1.99,0,1.989,2.115Zm-.8-.488q0-1.41-1.179-1.41-1.206,0-1.206,1.41v.081H443.8Z" transform="translate(-182.384 -31.85)" fill="#14ace3" class="cvz-svg-35"></path>
        <path id="Path_34" data-name="Path 34" d="M453.922,81.8a.163.163,0,0,1-.186.181H453.3a.162.162,0,0,1-.186-.181v-.2a2.764,2.764,0,0,1-1.378.443,1.293,1.293,0,0,1-1.46-1.465V80.47a1.246,1.246,0,0,1,.694-1.22,3.435,3.435,0,0,1,1.477-.244h.668v-.362a1.17,1.17,0,0,0-.212-.786.984.984,0,0,0-.752-.235q-.658,0-1.378.072h-.045c-.108,0-.162-.048-.162-.144v-.316q0-.144.19-.172a9.767,9.767,0,0,1,1.4-.117q1.763,0,1.763,1.7Zm-.8-2.224h-.663a2.6,2.6,0,0,0-.941.118.754.754,0,0,0-.43.768v.108a.863.863,0,0,0,.193.632.876.876,0,0,0,.632.19,2.487,2.487,0,0,0,1.209-.362Z" transform="translate(-186.386 -31.85)" fill="#14ace3" class="cvz-svg-36"></path>
        <path id="Path_35" data-name="Path 35" d="M461,80.554c0,.121-.054.181-.164.181h-.475c-.11,0-.165-.06-.165-.181V74.109a.15.15,0,0,1,.165-.172h.475c.11,0,.164.058.164.172Z" transform="translate(-190.491 -30.605)" fill="#14ace3" class="cvz-svg-37"></path>
        <path id="Path_36" data-name="Path 36" d="M467.774,81.084c0,.079-.061.133-.18.162.072,0,0,.006-.208.018s-.332.018-.362.018a1.344,1.344,0,0,1-.949-.271,1.281,1.281,0,0,1-.28-.941V76.917l-.876-.1c-.115-.012-.172-.067-.172-.163v-.244c0-.108.057-.162.172-.162h.876v-.886a.17.17,0,0,1,.165-.181l.5-.072c.092,0,.138.051.138.153v.986h.968a.158.158,0,0,1,.179.181v.308a.158.158,0,0,1-.179.181H466.6v3.154a.771.771,0,0,0,.094.443.468.468,0,0,0,.39.127h.5c.127,0,.189.042.189.127Z" transform="translate(-192.375 -31.091)" fill="#14ace3" class="cvz-svg-38"></path>
        <path id="Path_37" data-name="Path 37" d="M477.218,80.554a.161.161,0,0,1-.183.181H476.6a.161.161,0,0,1-.183-.181V77.586q0-1.182-.959-1.182a2.84,2.84,0,0,0-1.237.253v3.9a.161.161,0,0,1-.183.181h-.447c-.117,0-.174-.06-.174-.181V74.118c0-.121.057-.181.174-.181h.456q.174,0,.174.181V75.98a3.36,3.36,0,0,1,1.38-.28q1.621,0,1.622,1.88Z" transform="translate(-195.963 -30.605)" fill="#14ace3" class="cvz-svg-39"></path>
        <path id="Path_38" data-name="Path 38" d="M55.355,46.68H41.209s-.078,0-.19-.012l-.677-1.125-.5.658.777.645a2.191,2.191,0,0,0,1.325.493h14.15a5.464,5.464,0,0,1,3.239,1.1,5.515,5.515,0,0,0-3.978-1.762" transform="translate(-16.492 -18.852)" fill="#bbbdbc" class="cvz-svg-40"></path>
        <path id="Path_39" data-name="Path 39" d="M31.565,38.812a7.419,7.419,0,0,0,.708,3.311,7.807,7.807,0,0,1-.43-2.67,6.573,6.573,0,0,1,6.424-6.923H64.16l.639-.641H37.991a6.573,6.573,0,0,0-6.426,6.923" transform="translate(-13.066 -13.2)" fill="#bbbdbc" class="cvz-svg-41"></path>
        <path id="Path_40" data-name="Path 40" d="M43.406,57.369a4.281,4.281,0,0,1,.152,1.184,2.384,2.384,0,0,1-2.231,2.589H7.427l.643.641H41.6a2.387,2.387,0,0,0,2.228-2.589,3.473,3.473,0,0,0-.427-1.826" transform="translate(-3.074 -23.747)" fill="#bbbdbc" class="cvz-svg-42"></path>
        <path id="Path_41" data-name="Path 41" d="M40.483,34.807c0-2.759-1.983-2.827-1.983-2.827H23.854c-2.035,0-5.354-1.693-5.354-6.367a6.571,6.571,0,0,1,6.422-6.923H51.733L35.094,2.051a6.991,6.991,0,0,0-9.892,0L2.051,25.2a6.993,6.993,0,0,0,0,9.895l2.3,2.3h33.9a2.386,2.386,0,0,0,2.233-2.589" transform="translate(0 0)" fill="#0f4b91" class="cvz-svg-43"></path>
        <path id="Path_42" data-name="Path 42" d="M64.235,41.312l-2.39-2.39H30.905A2.392,2.392,0,0,0,28.611,41.5c0,2.517,2.089,2.466,2.089,2.466H44.845c2.373,0,5.748,1.783,5.748,6.969A7.147,7.147,0,0,1,48.74,56.16a6.318,6.318,0,0,1-4.085,1.473H14.468L31.19,74.357a6.991,6.991,0,0,0,9.892,0L64.235,51.206a7,7,0,0,0,0-9.894" transform="translate(-5.989 -16.111)" fill="#0f4b91" class="cvz-svg-44"></path>
        <g id="Group_3" data-name="Group 3" transform="translate(2.993 2.768)" opacity="0.18">
          <g id="Group_2" data-name="Group 2">
            <g id="Group_1" data-name="Group 1" clip-path="url(#clip-path-3)">
              <path id="Path_43" data-name="Path 43" d="M32.2,33.934H25.967c-2.036,0-5.355-1.694-5.355-6.368a6.571,6.571,0,0,1,6.423-6.923H32.2V4.722a4.22,4.22,0,0,0-2.7,1.227L6.348,29.1a4.253,4.253,0,0,0,0,6.007l.7.7L10.6,39.351H32.2Z" transform="translate(-5.106 -4.722)" fill="#fff" class="cvz-svg-45"></path>
              <path id="Path_44" data-name="Path 44" d="M36.292,85.629a4.224,4.224,0,0,0,2.7,1.231V70.849H21.512l6.538,6.537Z" transform="translate(-11.897 -32.094)" fill="#fff" class="cvz-svg-46"></path>
              <path id="Path_45" data-name="Path 45" d="M38.6,41.5c0,2.517,2.089,2.466,2.089,2.466h5.372V38.923H40.894A2.392,2.392,0,0,0,38.6,41.5" transform="translate(-18.971 -18.879)" fill="#fff" class="cvz-svg-47"></path>
            </g>
          </g>
        </g>
        <path id="Path_46" data-name="Path 46" d="M123.43,39.416v1.766c0,3.879,3.892,3.939,3.892,3.939h10.727c1.422,0,1.4,1.01,1.4,1.01v1.761c0,1.074-1.326,1.036-1.326,1.036h-14.8v2.789H138.4a3.745,3.745,0,0,0,3.909-3.825V46.368c0-3.918-3.969-3.977-3.969-3.977H127.613a1.222,1.222,0,0,1-1.256-1.244V39.823c0-1.3,1.428-1.291,1.566-1.308h14.46v-2.75H127.946a4.265,4.265,0,0,0-4.516,3.651" transform="translate(-51.044 -14.804)" fill="#676a6a" class="cvz-svg-48"></path>
        <path id="Path_47" data-name="Path 47" d="M162.741,47.682V46.217c0-1.171,1.331-1.145,1.331-1.145h10.353a4.062,4.062,0,0,0,4.4-3.918V39.643c0-3.6-4.077-3.944-4.077-3.944H164.708a4.44,4.44,0,0,0-4.828,4.007v7.84c0,4.376,3.87,4.143,3.87,4.143l15.1.073V48.968H163.909c-1.144,0-1.167-1.286-1.167-1.286m.087-8.1a1.358,1.358,0,0,1,1.5-1.15h10.239a1.267,1.267,0,0,1,1.278,1.291v1.486a1.361,1.361,0,0,1-1.5,1.155H164.11a1.275,1.275,0,0,1-1.282-1.295Z" transform="translate(-66.18 -14.777)" fill="#676a6a" class="cvz-svg-49"></path>
        <path id="Path_48" data-name="Path 48" d="M299.5,47.682V46.217c0-1.171,1.329-1.145,1.329-1.145h10.357a4.059,4.059,0,0,0,4.4-3.918V39.643c0-3.6-4.079-3.944-4.079-3.944H301.461a4.449,4.449,0,0,0-4.834,4.007v7.84c0,4.376,3.876,4.143,3.876,4.143l15.1.073V48.968H300.664c-1.151,0-1.169-1.286-1.169-1.286m.086-8.1a1.361,1.361,0,0,1,1.5-1.15h10.234a1.267,1.267,0,0,1,1.279,1.291v1.486a1.358,1.358,0,0,1-1.5,1.155H300.864a1.275,1.275,0,0,1-1.282-1.295Z" transform="translate(-122.784 -14.777)" fill="#676a6a" class="cvz-svg-50"></path>
        <path id="Path_49" data-name="Path 49" d="M435.9,35.767,420.8,35.7v2.794h14.942c1.146,0,1.166,1.286,1.166,1.286v1.464c0,1.167-1.324,1.146-1.324,1.146H425.221a4.06,4.06,0,0,0-4.4,3.918v1.511c0,3.6,4.081,3.944,4.081,3.944h10.035a4.446,4.446,0,0,0,4.831-4.012V39.915c0-4.376-3.871-4.148-3.871-4.148m.925,12.11a1.367,1.367,0,0,1-1.5,1.155H425.092a1.275,1.275,0,0,1-1.282-1.3V46.252a1.359,1.359,0,0,1,1.5-1.155h10.236a1.27,1.27,0,0,1,1.282,1.295Z" transform="translate(-174.184 -14.777)" fill="#676a6a" class="cvz-svg-51"></path>
        <rect id="Rectangle_2" data-name="Rectangle 2" width="3.012" height="2.993" transform="translate(219.319 20.922)" fill="#676a6a" class="cvz-svg-52"></rect>
        <rect id="Rectangle_3" data-name="Rectangle 3" width="3.012" height="10.854" transform="translate(219.319 26.135)" fill="#676a6a" class="cvz-svg-53"></rect>
        <path id="Path_50" data-name="Path 50" d="M462.2,48.934a1.1,1.1,0,0,1-1.162-1.065V35.75h-2.963s-.021,8.736-.021,12.17,3.791,3.785,3.791,3.785h8.8V48.934Z" transform="translate(-189.605 -14.798)" fill="#676a6a" class="cvz-svg-54"></path>
        <path id="Path_51" data-name="Path 51" d="M203.345,35.838h-6.751v2.555h6.155a1.548,1.548,0,0,1,1.6,1.6V51.819h2.99v-11.9c0-3.685-4-4.079-4-4.079" transform="translate(-81.377 -14.835)" fill="#676a6a" class="cvz-svg-55"></path>
        <path id="Path_52" data-name="Path 52" d="M213.438,36.445a4.211,4.211,0,0,1,1.43,2.488s.159-.45,1.88-.45h6.059V35.838h-7.253a4.572,4.572,0,0,0-2.117.607" transform="translate(-88.35 -14.835)" fill="#676a6a" class="cvz-svg-56"></path>
        <path id="Path_53" data-name="Path 53" d="M349.889,35.7h-15.34V51.727H349.8a4.188,4.188,0,0,0,4.4-3.689V40.075c0-4.05-4.31-4.376-4.31-4.376m1.4,11.953a1.339,1.339,0,0,1-1.371,1.282H337.547V38.556h12.369a1.439,1.439,0,0,1,1.371,1.575Z" transform="translate(-138.482 -14.777)" fill="#676a6a" class="cvz-svg-57"></path>
        <path id="Path_54" data-name="Path 54" d="M263.741,35.7h-2.9a4.246,4.246,0,0,0-4.542,3.986V51.762h2.912V40.042a1.494,1.494,0,0,1,1.524-1.528H263.5a1.635,1.635,0,0,1,1.673,1.669v11.58h2.9V40.254a4.357,4.357,0,0,0-4.337-4.555" transform="translate(-106.092 -14.777)" fill="#676a6a" class="cvz-svg-58"></path>
        <path id="Path_55" data-name="Path 55" d="M280.359,35.815H277.15a4.265,4.265,0,0,0-2.284.684,3.745,3.745,0,0,1,1.363,2.368,1.923,1.923,0,0,1,1.348-.433h2.595a1.808,1.808,0,0,1,1.786,1.876v11.5h2.869v-11.8a4.106,4.106,0,0,0-4.467-4.194" transform="translate(-113.777 -14.825)" fill="#676a6a" class="cvz-svg-59"></path>
        <path id="Path_56" data-name="Path 56" d="M402.928,35.7h-3.079v2.946s-.3,3.646-3.78,3.646H388.4V35.7h-3V51.766h3v-6.58h7.668s3.876.455,3.876,3.872V51.7h2.933s.747-5.994-3.245-7.972c0,0,3.3-.789,3.3-8.027" transform="translate(-159.532 -14.777)" fill="#676a6a" class="cvz-svg-60"></path>
      </g>
    </g>
  </g>
</svg>
